<?xml version="1.0" encoding="UTF-8" ?>
<svg version="1.1" width="128" height="128" xmlns="http://www.w3.org/2000/svg" shape-rendering="crispEdges">
<rect x="0" y="0" width="128" height="30" fill="#61567D" />
<rect x="0" y="30" width="67" height="3" fill="#61567D" />
<rect x="67" y="30" width="5" height="8" fill="#B8ABC1" />
<rect x="72" y="30" width="9" height="3" fill="#E5D6E9" />
<rect x="81" y="30" width="47" height="3" fill="#61567D" />
<rect x="0" y="33" width="64" height="5" fill="#61567D" />
<rect x="64" y="33" width="3" height="5" fill="#87769C" />
<rect x="72" y="33" width="9" height="5" fill="#B8ABC1" />
<rect x="81" y="33" width="3" height="5" fill="#E5D6E9" />
<rect x="84" y="33" width="44" height="5" fill="#61567D" />
<rect x="0" y="38" width="50" height="3" fill="#61567D" />
<rect x="50" y="38" width="5" height="3" fill="#B8ABC1" />
<rect x="55" y="38" width="12" height="3" fill="#E5D6E9" />
<rect x="67" y="38" width="14" height="3" fill="#87769C" />
<rect x="81" y="38" width="3" height="3" fill="#B8ABC1" />
<rect x="84" y="38" width="5" height="15" fill="#E5D6E9" />
<rect x="89" y="38" width="39" height="8" fill="#61567D" />
<rect x="0" y="41" width="47" height="5" fill="#61567D" />
<rect x="47" y="41" width="3" height="31" fill="#E5D6E9" />
<rect x="50" y="41" width="5" height="5" fill="#87769C" />
<rect x="55" y="41" width="4" height="5" fill="#B8ABC1" />
<rect x="59" y="41" width="22" height="5" fill="#E5D6E9" />
<rect x="81" y="41" width="3" height="5" fill="#87769C" />
<rect x="0" y="46" width="38" height="4" fill="#61567D" />
<rect x="38" y="46" width="9" height="4" fill="#E5D6E9" />
<rect x="50" y="46" width="5" height="29" fill="#E5D6E9" />
<rect x="55" y="46" width="4" height="4" fill="#87769C" />
<rect x="59" y="46" width="8" height="4" fill="#B8ABC1" />
<rect x="67" y="46" width="17" height="4" fill="#E5D6E9" />
<rect x="89" y="46" width="4" height="34" fill="#E5D6E9" />
<rect x="93" y="46" width="35" height="4" fill="#61567D" />
<rect x="0" y="50" width="25" height="5" fill="#61567D" />
<rect x="25" y="50" width="13" height="5" fill="#E5D6E9" />
<rect x="38" y="50" width="4" height="5" fill="#B8ABC1" />
<rect x="42" y="50" width="5" height="17" fill="#E5D6E9" />
<rect x="55" y="50" width="4" height="30" fill="#E5D6E9" />
<rect x="59" y="50" width="8" height="5" fill="#87769C" />
<rect x="67" y="50" width="5" height="5" fill="#B8ABC1" />
<rect x="72" y="50" width="12" height="3" fill="#E5D6E9" />
<rect x="93" y="50" width="5" height="22" fill="#E5D6E9" />
<rect x="98" y="50" width="30" height="5" fill="#61567D" />
<rect x="72" y="53" width="9" height="27" fill="#E5D6E9" />
<rect x="81" y="53" width="8" height="4" fill="#61567D" />
<rect x="0" y="55" width="22" height="73" fill="#61567D" />
<rect x="22" y="55" width="11" height="3" fill="#E5D6E9" />
<rect x="33" y="55" width="5" height="3" fill="#87769C" />
<rect x="38" y="55" width="4" height="8" fill="#E5D6E9" />
<rect x="59" y="55" width="8" height="29" fill="#E5D6E9" />
<rect x="67" y="55" width="5" height="3" fill="#87769C" />
<rect x="98" y="55" width="3" height="17" fill="#E5D6E9" />
<rect x="101" y="55" width="27" height="25" fill="#61567D" />
<rect x="81" y="57" width="3" height="5" fill="#E5D6E9" />
<rect x="84" y="57" width="5" height="13" fill="#61567D" />
<rect x="22" y="58" width="3" height="9" fill="#B8ABC1" />
<rect x="25" y="58" width="5" height="5" fill="#E5D6E9" />
<rect x="30" y="58" width="3" height="17" fill="#87769C" />
<rect x="33" y="58" width="5" height="14" fill="#B8ABC1" />
<rect x="67" y="58" width="5" height="26" fill="#E5D6E9" />
<rect x="81" y="62" width="3" height="8" fill="#61567D" />
<rect x="25" y="63" width="5" height="9" fill="#B8ABC1" />
<rect x="38" y="63" width="4" height="29" fill="#B8ABC1" />
<rect x="22" y="67" width="3" height="8" fill="#61567D" />
<rect x="42" y="67" width="5" height="25" fill="#B8ABC1" />
<rect x="81" y="70" width="8" height="10" fill="#E5D6E9" />
<rect x="25" y="72" width="5" height="3" fill="#87769C" />
<rect x="33" y="72" width="5" height="3" fill="#87769C" />
<rect x="47" y="72" width="3" height="20" fill="#B8ABC1" />
<rect x="93" y="72" width="8" height="3" fill="#61567D" />
<rect x="22" y="75" width="16" height="5" fill="#E5D6E9" />
<rect x="50" y="75" width="5" height="22" fill="#B8ABC1" />
<rect x="93" y="75" width="5" height="9" fill="#B8ABC1" />
<rect x="98" y="75" width="3" height="9" fill="#87769C" />
<rect x="22" y="80" width="8" height="4" fill="#E5D6E9" />
<rect x="30" y="80" width="8" height="12" fill="#B8ABC1" />
<rect x="55" y="80" width="4" height="17" fill="#B8ABC1" />
<rect x="72" y="80" width="17" height="4" fill="#87769C" />
<rect x="89" y="80" width="4" height="4" fill="#B8ABC1" />
<rect x="101" y="80" width="5" height="9" fill="#E5D6E9" />
<rect x="106" y="80" width="22" height="48" fill="#61567D" />
<rect x="22" y="84" width="8" height="5" fill="#B8ABC1" />
<rect x="59" y="84" width="13" height="13" fill="#B8ABC1" />
<rect x="72" y="84" width="17" height="5" fill="#E5D6E9" />
<rect x="89" y="84" width="9" height="5" fill="#87769C" />
<rect x="98" y="84" width="3" height="5" fill="#E5D6E9" />
<rect x="22" y="89" width="3" height="39" fill="#61567D" />
<rect x="25" y="89" width="5" height="3" fill="#B8ABC1" />
<rect x="72" y="89" width="17" height="8" fill="#B8ABC1" />
<rect x="89" y="89" width="4" height="3" fill="#87769C" />
<rect x="93" y="89" width="13" height="3" fill="#B8ABC1" />
<rect x="25" y="92" width="25" height="36" fill="#61567D" />
<rect x="89" y="92" width="4" height="5" fill="#B8ABC1" />
<rect x="93" y="92" width="13" height="36" fill="#61567D" />
<rect x="50" y="97" width="43" height="31" fill="#61567D" />
</svg>